<svg xmlns="http://www.w3.org/2000/svg" width="100%" viewBox="0 0 34 34"><defs><style>.a{fill:#1ECD7D;}</style></defs><circle class="a" cx="24.5256" cy="24.4373" r="0.6235"/><path class="a" d="M27.9589,21.004a.6233.6233,0,1,0,0,.8818A.6243.6243,0,0,0,27.9589,21.004Z"/><path class="a" d="M21.9737,21.0037a.6235.6235,0,1,0,0,.8818A.624.624,0,0,0,21.9737,21.0037Z"/><path class="a" d="M24.9662,18.0112a.6233.6233,0,1,0,0,.8818A.6243.6243,0,0,0,24.9662,18.0112Z"/><path class="a" d="M27.9589,15.0185a.6235.6235,0,1,0,0,.8818A.624.624,0,0,0,27.9589,15.0185Z"/><path class="a" d="M27.9589,23.9968a.6232.6232,0,1,0,0,.8814A.6241.6241,0,0,0,27.9589,23.9968Z"/><path class="a" d="M24.9662,21.004a.6233.6233,0,1,0,0,.8815A.6242.6242,0,0,0,24.9662,21.004Z"/><path class="a" d="M21.9734,18.0112a.6233.6233,0,1,0,0,.8815A.6241.6241,0,0,0,21.9734,18.0112Z"/><path class="a" d="M27.9589,18.0112a.6233.6233,0,1,0,0,.8818A.6244.6244,0,0,0,27.9589,18.0112Z"/><path class="a" d="M24.9662,15.0185a.6233.6233,0,1,0,0,.8818A.6242.6242,0,0,0,24.9662,15.0185Z"/><path class="a" d="M27.9589,12.0257a.6235.6235,0,1,0,0,.8818A.6242.6242,0,0,0,27.9589,12.0257Z"/><path class="a" d="M21.9737,15.0188a.6233.6233,0,1,0,0,.8815A.6243.6243,0,0,0,21.9737,15.0188Z"/><path class="a" d="M24.9665,12.026a.6235.6235,0,1,0,0,.8815A.6244.6244,0,0,0,24.9665,12.026Z"/><path class="a" d="M27.9593,9.0333a.6235.6235,0,1,0,0,.8814A.6243.6243,0,0,0,27.9593,9.0333Z"/><path class="a" d="M18.98,12.0246a.6233.6233,0,1,0,0,.8818A.6242.6242,0,0,0,18.98,12.0246Z"/><path class="a" d="M21.9723,9.0318a.6235.6235,0,1,0,0,.8818A.6243.6243,0,0,0,21.9723,9.0318Z"/><path class="a" d="M12.9946,12.0246a.6235.6235,0,1,0,0,.8814A.6243.6243,0,0,0,12.9946,12.0246Z"/><path class="a" d="M15.9871,9.0321a.6233.6233,0,1,0,0,.8815A.6244.6244,0,0,0,15.9871,9.0321Z"/><path class="a" d="M18.98,6.0394a.6235.6235,0,1,0,0,.8814A.6243.6243,0,0,0,18.98,6.0394Z"/><circle class="a" cx="9.561" cy="9.4727" r="0.6235"/><circle class="a" cx="15.5462" cy="3.4875" r="0.6235"/><path class="a" d="M15.9871,12.0249a.6233.6233,0,1,0,0,.8811A.6242.6242,0,0,0,15.9871,12.0249Z"/><path class="a" d="M12.9943,9.0321a.6233.6233,0,1,0,0,.8815A.6243.6243,0,0,0,12.9943,9.0321Z"/><path class="a" d="M21.9723,12.0246a.6233.6233,0,1,0,0,.8818A.6243.6243,0,0,0,21.9723,12.0246Z"/><path class="a" d="M18.98,9.0321a.6233.6233,0,1,0,0,.8815A.6244.6244,0,0,0,18.98,9.0321Z"/><path class="a" d="M15.9871,6.0394a.6233.6233,0,1,0,0,.8818A.6243.6243,0,0,0,15.9871,6.0394Z"/><circle class="a" cx="24.5241" cy="9.4727" r="0.6235"/><circle class="a" cx="18.5389" cy="3.4875" r="0.6235"/><circle class="a" cx="18.5404" cy="30.4225" r="0.6235"/><path class="a" d="M18.981,23.9964a.6233.6233,0,1,0,0,.8815A.6243.6243,0,0,0,18.981,23.9964Z"/><path class="a" d="M15.9885,26.9889a.6235.6235,0,1,0,0,.8818A.624.624,0,0,0,15.9885,26.9889Z"/><circle class="a" cx="15.5476" cy="30.4225" r="0.6235"/><path class="a" d="M18.981,26.9892a.6233.6233,0,1,0,0,.8815A.6242.6242,0,0,0,18.981,26.9892Z"/><path class="a" d="M15.9882,23.9964a.6233.6233,0,1,0,0,.8815A.6241.6241,0,0,0,15.9882,23.9964Z"/><path class="a" d="M21.9737,23.9964a.6233.6233,0,1,0,0,.8818A.6244.6244,0,0,0,21.9737,23.9964Z"/><path class="a" d="M18.981,21.0037a.6233.6233,0,1,0,0,.8818A.6242.6242,0,0,0,18.981,21.0037Z"/><path class="a" d="M15.9885,21.004a.6233.6233,0,1,0,0,.8811A.624.624,0,0,0,15.9885,21.004Z"/><path class="a" d="M12.9961,23.9964a.6235.6235,0,1,0,0,.8815A.6244.6244,0,0,0,12.9961,23.9964Z"/><path class="a" d="M12.9943,18.01a.6233.6233,0,1,0,0,.8814A.624.624,0,0,0,12.9943,18.01Z"/><path class="a" d="M7.0091,23.995a.6235.6235,0,1,0,0,.8818A.6242.6242,0,0,0,7.0091,23.995Z"/><path class="a" d="M10.0019,21.0022a.6236.6236,0,1,0,0,.8818A.6243.6243,0,0,0,10.0019,21.0022Z"/><path class="a" d="M10.0019,15.0173a.6233.6233,0,1,0,0,.8811A.6243.6243,0,0,0,10.0019,15.0173Z"/><path class="a" d="M7.0094,18.01a.6235.6235,0,1,0,0,.8814A.6243.6243,0,0,0,7.0094,18.01Z"/><path class="a" d="M7.0091,12.0246a.6233.6233,0,1,0,0,.8814A.6243.6243,0,0,0,7.0091,12.0246Z"/><circle class="a" cx="9.561" cy="24.4359" r="0.6235"/><path class="a" d="M7.0094,21.0025a.6235.6235,0,1,0,0,.8815A.6244.6244,0,0,0,7.0094,21.0025Z"/><path class="a" d="M12.9943,21.0025a.6233.6233,0,1,0,0,.8815A.6243.6243,0,0,0,12.9943,21.0025Z"/><path class="a" d="M10.0019,18.01a.6233.6233,0,1,0,0,.8811A.6242.6242,0,0,0,10.0019,18.01Z"/><path class="a" d="M7.0091,15.0173a.6233.6233,0,1,0,0,.8815A.6243.6243,0,0,0,7.0091,15.0173Z"/><path class="a" d="M12.9946,15.0173a.6233.6233,0,1,0,0,.8815A.6244.6244,0,0,0,12.9946,15.0173Z"/><path class="a" d="M10.0019,12.0246a.6233.6233,0,1,0,0,.8818A.6244.6244,0,0,0,10.0019,12.0246Z"/><path class="a" d="M7.0091,9.0318a.6233.6233,0,1,0,0,.8818A.6243.6243,0,0,0,7.0091,9.0318Z"/><path class="a" d="M16.9961,22.1309a5.13,5.13,0,1,1,5.13-5.13A5.1351,5.1351,0,0,1,16.9961,22.1309Zm0-8.26a3.13,3.13,0,1,0,3.13,3.13A3.1337,3.1337,0,0,0,16.9961,13.8711Z"/><path class="a" d="M19.835,33.3555H14.082a.9993.9993,0,0,1-.9931-.8838l-.1192-1.02c-.1191-1.0146-.2695-2.29-.4023-3.07a12.2511,12.2511,0,0,1-3.3682-1.9541L5.4375,28.0518a.9989.9989,0,0,1-1.2627-.418l-2.8389-4.916a1.0006,1.0006,0,0,1,.27-1.3028l3.2881-2.4462a12.4081,12.4081,0,0,1-.1582-1.9708,11.6388,11.6388,0,0,1,.15-1.9785L1.6045,12.58a1.0005,1.0005,0,0,1-.27-1.3028l2.8379-4.915a.9984.9984,0,0,1,1.2626-.418s2.57,1.1094,3.7618,1.6241a12.3685,12.3685,0,0,1,3.417-1.9737l.4736-4.0664a.9993.9993,0,0,1,.9932-.8838h5.7558a.9994.9994,0,0,1,.9932.8838l.4736,4.0664A12.3694,12.3694,0,0,1,24.72,7.5684c1.1914-.5147,3.7627-1.6241,3.7627-1.6241a.9975.9975,0,0,1,1.2627.418l2.8379,4.915a1.0005,1.0005,0,0,1-.27,1.3028l-3.2891,2.4453a12.3661,12.3661,0,0,1,0,3.9434l3.2871,2.4462a1.0006,1.0006,0,0,1,.27,1.3028l-2.8379,4.916a.9982.9982,0,0,1-1.2627.418l-3.7617-1.6241A12.1829,12.1829,0,0,1,21.35,28.3848c-.1367.8056-.291,2.1279-.4014,3.0673l-.12,1.0206A1.0006,1.0006,0,0,1,19.835,33.3555Zm-4.8633-2h3.9746l.0156-.1367c.1983-1.6944.377-3.1534.55-3.8321a.996.996,0,0,1,.6524-.7021,10.3267,10.3267,0,0,0,3.7031-2.1621.9953.9953,0,0,1,1.0693-.1787l3.52,1.5195,1.9472-3.375L27.3281,20.2a1.0015,1.0015,0,0,1-.38-1.0166,10.273,10.273,0,0,0,.2344-2.1856,10.41,10.41,0,0,0-.2344-2.1914,1.0006,1.0006,0,0,1,.3809-1.0136l3.0762-2.2871L28.458,8.1328c-1.1973.5176-3.31,1.43-3.5185,1.52a1.0026,1.0026,0,0,1-1.0723-.1787,10.3159,10.3159,0,0,0-3.794-2.19,1.0049,1.0049,0,0,1-.6992-.9717l-.4277-3.667H14.9717l-.4346,3.7246a1.0469,1.0469,0,0,1-.751.93A10.3,10.3,0,0,0,10.05,9.4746a1.0012,1.0012,0,0,1-1.0723.1777c-.208-.09-2.32-1.0019-3.5175-1.52L3.5127,11.5059,6.5889,13.793a1.0008,1.0008,0,0,1,.3759,1.0351,8.9945,8.9945,0,0,0-.2294,2.17A10.2794,10.2794,0,0,0,6.97,19.1836,1.0011,1.0011,0,0,1,6.59,20.2L3.5137,22.4883l1.9482,3.375,3.52-1.5195a.998.998,0,0,1,1.0694.1787,10.25,10.25,0,0,0,3.6416,2.1416,1.118,1.118,0,0,1,.7129.7207c.1836.7187.3759,2.3515.5459,3.791Z"/></svg>