<svg xmlns="http://www.w3.org/2000/svg" width="100%" viewBox="0 0 34 34"><defs><style>.a{fill:#1ECD7D;}</style></defs><rect class="a" x="16.1045" y="30.1827" width="5.4083" height="0.9999" transform="translate(-16.187 22.2864) rotate(-45)"/><rect class="a" x="12.0539" y="27.9625" width="10.108" height="0.9999" transform="translate(-15.1152 20.4336) rotate(-45)"/><rect class="a" x="12.0464" y="26.2295" width="5.748" height="0.9999" transform="translate(-14.5305 18.3792) rotate(-45)"/><path class="a" d="M18.9878,33.6514H14.7539a2.6016,2.6016,0,0,1-2.5986-2.5987l-.0157-4.03a13.4438,13.4438,0,0,0-.2246-1.9082,14.2221,14.2221,0,0,0-1.5088-4.1788q-.2981-.5463-.6416-1.0625l-1.436-2.17A10.631,10.631,0,0,1,6.291,11.4043a10.7878,10.7878,0,0,1,5.4761-9.375,10.9569,10.9569,0,0,1,10.5693.001A10.763,10.763,0,0,1,25.75,17.74l-.22.292-1.2427,1.6533a13.399,13.399,0,0,0-2.6455,6.7959c-.0342.379-.0542.7666-.0557,1.1573v3.414A2.6016,2.6016,0,0,1,18.9878,33.6514ZM17.0522,2.6445A8.76,8.76,0,0,0,9.97,16.5615l1.4619,2.2071c.26.3925.503.7929.729,1.207A16.2254,16.2254,0,0,1,13.88,24.7412a15.3977,15.3977,0,0,1,.2568,2.1758c.0064.1035.01.2207.0132.3369.0039.1494.0054.2988.0054.4473v3.3515a.5993.5993,0,0,0,.5986.5987h4.2339a.5993.5993,0,0,0,.5986-.5987V27.7012c.0015-.5176.0244-.9619.064-1.4043a15.3888,15.3888,0,0,1,3.0386-7.8135l1.4492-1.9277a8.7594,8.7594,0,0,0-7.086-13.9112Zm7.89,14.5069h0Z"/><path class="a" d="M12.8965,25.9277a1,1,0,0,1-.0762-1.997l7.9566-.6153a1,1,0,0,1,.1543,1.9942l-7.9566.6152C12.9482,25.9268,12.9224,25.9277,12.8965,25.9277Z"/><path class="a" d="M10.2905,12.4043a1,1,0,0,1-1-1,7.7836,7.7836,0,0,1,3.9546-6.7637,1,1,0,1,1,.9844,1.74,5.7833,5.7833,0,0,0-2.939,5.0234A1,1,0,0,1,10.2905,12.4043Z"/></svg>