<svg xmlns="http://www.w3.org/2000/svg" width="100%" viewBox="0 0 34 34"><defs><style>.a{fill:#1ECD7D;}</style></defs><path class="a" d="M8.1948,23.1309A11.1641,11.1641,0,0,1,4.1465,22.13a9.3921,9.3921,0,0,0-2.5654-.7774l.1484-.9882a10.2042,10.2042,0,0,1,2.75.8183,10.3108,10.3108,0,0,0,3.7729.95Z"/><path class="a" d="M8.8613,25.8164a11.3079,11.3079,0,0,1-4.7153-1.02,9.4662,9.4662,0,0,0-1.4253-.5313l.2705-.9629a10.0168,10.0168,0,0,1,1.4893.5479,10.51,10.51,0,0,0,4.893.9541l.0489.998C9.2354,25.8125,9.0479,25.8164,8.8613,25.8164Z"/><path class="a" d="M8.876,28.4834a11.3792,11.3792,0,0,1-4.7295-1.0186l.418-.9082a10.437,10.437,0,0,0,5.7763.8233l.1406.99A11.46,11.46,0,0,1,8.876,28.4834Z"/><path class="a" d="M7.5239,32.1074a2.0053,2.0053,0,0,1-1.7983-1.122L1.1318,21.6006a2.0018,2.0018,0,0,1,.9165-2.6748L4.35,17.7979a2.0045,2.0045,0,0,1,2.6763.9179L11.62,28.1006a2,2,0,0,1-.9179,2.6758l-2.3,1.1269A1.9955,1.9955,0,0,1,7.5239,32.1074ZM5.23,19.5947l-2.3018,1.127,4.5943,9.3857L9.8232,28.98Z"/><path class="a" d="M20.52,23.1426H17.1436a1,1,0,0,1,0-2h3.2387c2.2085.0117,2.6621-.3594,2.75-.4756.0821-.1074.0078-.3994-.0171-.4863a1.5053,1.5053,0,0,0-1.7192-1.0528,8.4188,8.4188,0,0,0-.9292.126c-1.4165.2344-3.3574.5566-4.4966-.4756a5.579,5.579,0,0,0-4.0488-1.7031c-1.3779.0322-3.686,1.8984-4.8169,3.0674A1,1,0,0,1,5.667,18.752c.3579-.37,3.5723-3.6143,6.2065-3.6768a7.7092,7.7092,0,0,1,5.44,2.2217c.4238.3818,2.0469.1133,2.8261-.0166a9.034,9.034,0,0,1,1.2339-.1524,3.5648,3.5648,0,0,1,3.6656,2.5059,2.4357,2.4357,0,0,1-.315,2.2441C24.0518,22.7617,22.79,23.1426,20.52,23.1426Z"/><path class="a" d="M21.8193,28.9062c-4.5034,0-11.3628-.1279-11.4409-.1289a1.0008,1.0008,0,0,1-.9814-1.0185,1.0413,1.0413,0,0,1,1.0185-.9815c.0889.002,8.9278.1709,13.086.1211,2.0361-.0224,6.895-5.1709,7.7563-7.7548.2085-.625-.0112-.8321-.105-.9209a1.6669,1.6669,0,0,0-1.331-.3311,67.19,67.19,0,0,0-5.6856,4.5107,1,1,0,0,1-1.3076-1.5136,67.757,67.757,0,0,1,6.0259-4.7471,3.5074,3.5074,0,0,1,3.5254.498,2.7394,2.7394,0,0,1,.7754,3.1368c-.9424,2.8271-6.2149,9.0849-9.6324,9.122C23.0161,28.9043,22.44,28.9062,21.8193,28.9062Z"/><path class="a" d="M32.3315,14.207a1,1,0,0,1-1-1A10.1524,10.1524,0,0,0,11.08,12.167a1.0124,1.0124,0,0,1-1.0962.8945A1.0005,1.0005,0,0,1,9.09,11.9658,12.1526,12.1526,0,0,1,33.3315,13.207,1,1,0,0,1,32.3315,14.207Z"/><path class="a" d="M20.3135,12.752a1,1,0,0,1-.7071-.293l-2.2148-2.2149A1,1,0,1,1,18.8057,8.83l1.5078,1.5078,3.5708-3.5713a1,1,0,0,1,1.414,1.4141L21.0205,12.459A1,1,0,0,1,20.3135,12.752Z"/></svg>